HIERARCHY
ROOT Hips
{
	OFFSET 0.00000 0.00000 0.00000
	CHANNELS 6 Xposition Yposition Zposition Zrotation Yrotation Xrotation 
	JOINT LHipJoint
	{
		OFFSET 0 0 0
		CHANNELS 3 Zrotation Yrotation Xrotation
		JOINT LeftHip
		{
			OFFSET 1.41261 -1.82971 0.84908
			CHANNELS 3 Zrotation Yrotation Xrotation
			JOINT LeftKnee
			{
				OFFSET 2.52554 -6.93888 0.00000
				CHANNELS 3 Zrotation Yrotation Xrotation
				JOINT LeftAnkle
				{
					OFFSET 2.56654 -7.05152 0.00000
					CHANNELS 3 Zrotation Yrotation Xrotation
					JOINT LeftToe
					{
						OFFSET 0.21698 -0.59616 1.85369
						CHANNELS 3 Zrotation Yrotation Xrotation
						End Site
						{
							OFFSET 0.00000 -0.00000 0.97832
						}
					}
				}
			}
		}
	}
	JOINT RHipJoint
	{
		OFFSET 0 0 0
		CHANNELS 3 Zrotation Yrotation Xrotation
		JOINT RightHip
		{
			OFFSET -1.12808 -1.82971 0.84907
			CHANNELS 3 Zrotation Yrotation Xrotation
			JOINT RightKnee
			{
				OFFSET -2.53425 -6.96280 0.00000
				CHANNELS 3 Zrotation Yrotation Xrotation
				JOINT RightAnkle
				{
					OFFSET -2.58413 -7.09983 0.00000
					CHANNELS 3 Zrotation Yrotation Xrotation
					JOINT RightToe
					{
						OFFSET -0.26437 -0.72636 1.92241
						CHANNELS 3 Zrotation Yrotation Xrotation
						End Site
						{
							OFFSET -0.00000 -0.00000 1.02667
						}
					}
				}
			}
		}
	}
	JOINT lowerback
	{
		OFFSET 0 0 0
		CHANNELS 3 Zrotation Yrotation Xrotation
		JOINT Chest
		{
			OFFSET -0.02096 2.02288 -0.14752
			CHANNELS 3 Zrotation Yrotation Xrotation
			JOINT Chest2
			{
				OFFSET 0.03477 2.03136 -0.02358
				CHANNELS 3 Zrotation Yrotation Xrotation
				JOINT lowerneck
				{
					OFFSET 0 0 0
					CHANNELS 3 Zrotation Yrotation Xrotation
					JOINT Neck
					{
						OFFSET 0.00174 1.74359 0.19336
						CHANNELS 3 Zrotation Yrotation Xrotation
						JOINT Head
						{
							OFFSET -0.03054 1.76140 -0.17751
							CHANNELS 3 Zrotation Yrotation Xrotation
							End Site
							{
								OFFSET -0.00863 1.77239 -0.08120
							}
						}
					}
				}
				JOINT LeftCollar
				{
					OFFSET 0 0 0
					CHANNELS 3 Zrotation Yrotation Xrotation
					JOINT LeftShoulder
					{
						OFFSET 3.68685 1.32687 -0.67367
CHANNELS 3 Zrotation Xrotation Yrotation
						JOINT LeftElbow
						{
OFFSET 0 -4.764680 -0.000000
CHANNELS 3 Zrotation Xrotation Yrotation
							JOINT LeftWrist
							{
OFFSET 0 -3.527120 -0.000000
CHANNELS 3 Zrotation Xrotation Yrotation
								JOINT lhand
								{
									OFFSET 0 0 0
CHANNELS 3 Zrotation Xrotation Yrotation
									JOINT LFingers
									{
OFFSET 0 -0.859560 -0.000000
CHANNELS 3 Zrotation Xrotation Yrotation
										End Site
										{
OFFSET 0 -0.693000 -0.000000
										}
									}
								}
								JOINT LThumb
								{
OFFSET 0 0.000000 0.000000
CHANNELS 3 Zrotation Xrotation Yrotation
									End Site
									{
OFFSET 0 -0.703580 0.703580
									}
								}
							}
						}
					}
				}
				JOINT RightCollar
				{
					OFFSET 0 0 0
					CHANNELS 3 Zrotation Yrotation Xrotation
					JOINT RightShoulder
					{
						OFFSET -3.31304 1.28268 -0.97357
CHANNELS 3 Zrotation Xrotation Yrotation
						JOINT RightElbow
						{
OFFSET 0 -4.905770 -0.000000
CHANNELS 3 Zrotation Xrotation Yrotation
							JOINT RightWrist
							{
OFFSET 0 -3.426920 0.000000
CHANNELS 3 Zrotation Xrotation Yrotation
								JOINT rhand
								{
									OFFSET 0 0 0
CHANNELS 3 Zrotation Xrotation Yrotation
									JOINT RFingers
									{
OFFSET 0 -0.740960 -0.000000
CHANNELS 3 Zrotation Xrotation Yrotation
										End Site
										{
OFFSET 0 -0.597380 -0.000000
										}
									}
								}
								JOINT RThumb
								{
OFFSET 0 0.000000 0.000000
CHANNELS 3 Zrotation Xrotation Yrotation
									End Site
									{
OFFSET 0 -0.606500 0.606500
									}
								}
							}
						}
					}
				}
			}
		}
	}
}
MOTION
Frames: 6
Frame Time: 0.008333333333333333
5.692534 24.253030 6.938555 -0.264199 34.377000 -10.472851 0.000000 0.000000 0.000000 -16.720497 1.234802 -14.430328 11.023190 17.942939 62.852600 -0.221784 -9.204029 7.588312 3.843026 -11.948372 -35.549828 0.000000 0.000000 0.000000 17.829282 -2.607349 -22.394580 -15.817420 -19.574492 77.686904 -0.942535 -14.508628 18.781586 -1.890601 -8.633314 24.655495 -1.335531 0.273496 15.079132 0.628284 0.209357 1.078840 1.380276 0.165425 -7.322869 -0.240814 2.464849 -3.668517 -3.730246 3.723540 9.354832 -1.024617 1.696178 3.767139 0.000000 0.000000 0.000000 24.280285 -16.859269 -13.372171 52.599332 -53.971812 28.268820 20.211539 -12.231354 21.501056 0.000000 0.000000 0.000000 -7.125000 0.000000 0.000000 -5.371796 7.291194 -4.667794 0.000000 0.000000 0.000000 -47.358797 -52.606458 32.040642 -26.600983 -37.794419 -9.254207 -7.421577 3.803008 32.894394 0.000000 0.000000 0.000000 7.125000 0.000000 0.000000 29.012001 60.696307 -11.665410
5.814002 24.253890 7.124264 -0.295598 34.196999 -10.650754 0.000000 0.000000 0.000000 -16.658490 0.762206 -14.692385 10.737369 17.798017 61.917999 -0.213152 -9.009688 7.399335 3.807879 -11.899915 -35.379285 0.000000 0.000000 0.000000 17.886645 -2.562848 -22.971139 -15.652861 -19.539276 77.194911 -0.885206 -14.403083 18.302559 -1.941602 -8.741541 24.991285 -1.271392 0.304688 15.384796 0.614253 0.259670 1.228921 1.318029 0.187676 -7.332808 -0.217841 2.562346 -3.336750 -3.816739 3.832421 8.834295 -1.056050 1.758735 3.526817 0.000000 0.000000 0.000000 23.423854 -16.207807 -14.158513 51.125796 -53.404435 27.085059 20.244416 -12.639261 21.348568 0.000000 0.000000 0.000000 -7.125000 0.000000 0.000000 -5.338987 7.444783 -4.622983 0.000000 0.000000 0.000000 -46.122590 -52.318574 34.200925 -26.322350 -37.522458 -9.084420 -7.327931 3.218023 32.749781 0.000000 0.000000 0.000000 7.125000 0.000000 0.000000 28.969804 60.549322 -11.544630
5.935469 24.254749 7.309974 -0.326997 34.016998 -10.828657 0.000000 0.000000 0.000000 -16.596484 0.289609 -14.954442 10.451548 17.653094 60.983399 -0.204520 -8.815346 7.210358 3.772732 -11.851459 -35.208742 0.000000 0.000000 0.000000 17.944009 -2.518346 -23.547698 -15.488302 -19.504060 76.702918 -0.827877 -14.297538 17.823532 -1.992603 -8.849768 25.327076 -1.207254 0.335881 15.690460 0.600222 0.309984 1.379002 1.255782 0.209927 -7.342747 -0.194868 2.659844 -3.004983 -3.903231 3.941302 8.313758 -1.087483 1.821291 3.286495 0.000000 0.000000 0.000000 22.567424 -15.556345 -14.944856 49.652259 -52.837058 25.901298 20.277294 -13.047169 21.196080 0.000000 0.000000 0.000000 -7.125000 0.000000 0.000000 -5.306178 7.598372 -4.578172 0.000000 0.000000 0.000000 -44.886384 -52.030690 36.361208 -26.043717 -37.250497 -8.914633 -7.234286 2.633038 32.605168 0.000000 0.000000 0.000000 7.125000 0.000000 0.000000 28.927607 60.402336 -11.423850
6.058119 24.245853 7.496702 -0.405484 33.841519 -10.993362 0.000000 0.000000 0.000000 -16.476166 -0.144921 -15.211427 10.143731 17.484383 59.960140 -0.196764 -8.639641 7.048654 3.734509 -11.798135 -35.021966 0.000000 0.000000 0.000000 18.045712 -2.457327 -24.143586 -15.286613 -19.456888 76.097317 -0.803441 -14.011722 17.539439 -1.976087 -8.814305 25.217332 -1.114519 0.363692 15.942131 0.603543 0.363291 1.525376 1.194717 0.233053 -7.325924 -0.156110 2.758502 -2.672219 -3.999785 4.051262 7.801734 -1.125759 1.885131 3.054381 0.000000 0.000000 0.000000 21.811751 -14.945414 -15.819694 48.227340 -52.232042 24.771817 20.257216 -13.589398 21.328041 0.000000 0.000000 0.000000 -7.125000 0.000000 0.000000 -5.329441 7.464374 -4.612855 0.000000 0.000000 0.000000 -43.800692 -51.692274 38.394053 -25.824964 -37.034607 -8.782302 -7.056442 2.197447 32.474874 0.000000 0.000000 0.000000 7.125000 0.000000 0.000000 28.985107 60.248222 -11.340546
6.181581 24.230240 7.684131 -0.516394 33.669153 -11.148980 0.000000 0.000000 0.000000 -16.315699 -0.553241 -15.464921 9.820768 17.299293 58.875837 -0.189610 -8.476766 6.905726 3.694169 -11.741459 -34.824013 0.000000 0.000000 0.000000 18.177944 -2.384935 -24.752782 -15.059360 -19.401485 75.413493 -0.801653 -13.601785 17.389565 -1.913083 -8.679906 24.800827 -1.002096 0.389176 16.156625 0.618813 0.418660 1.669198 1.134464 0.256783 -7.290673 -0.106484 2.857960 -2.338767 -4.103267 4.161966 7.295573 -1.168747 1.949854 2.827919 0.000000 0.000000 0.000000 21.125451 -14.362389 -16.755463 46.835894 -51.601111 23.679707 20.200678 -14.224112 21.655853 0.000000 0.000000 0.000000 -7.125000 0.000000 0.000000 -5.391310 7.132367 -4.702271 0.000000 0.000000 0.000000 -42.818633 -51.319067 40.339154 -25.647440 -36.857323 -8.675760 -6.820625 1.864717 32.354438 0.000000 0.000000 0.000000 7.125000 0.000000 0.000000 29.111252 60.089199 -11.283045
6.305043 24.214627 7.871560 -0.627304 33.496787 -11.304597 0.000000 0.000000 0.000000 -16.155233 -0.961561 -15.718414 9.497806 17.114202 57.791534 -0.182457 -8.313892 6.762798 3.653829 -11.684783 -34.626061 0.000000 0.000000 0.000000 18.310176 -2.312542 -25.361978 -14.832106 -19.346082 74.729670 -0.799864 -13.191849 17.239690 -1.850080 -8.545507 24.384322 -0.889673 0.414659 16.371120 0.634082 0.474029 1.813019 1.074212 0.280513 -7.255423 -0.056859 2.957418 -2.005315 -4.206748 4.272669 6.789411 -1.211736 2.014578 2.601457 0.000000 0.000000 0.000000 20.439151 -13.779364 -17.691233 45.444448 -50.970180 22.587598 20.144140 -14.858826 21.983664 0.000000 0.000000 0.000000 -7.125000 0.000000 0.000000 -5.453178 6.800360 -4.791686 0.000000 0.000000 0.000000 -41.836573 -50.945860 42.284255 -25.469915 -36.680039 -8.569218 -6.584808 1.531987 32.234002 0.000000 0.000000 0.000000 7.125000 0.000000 0.000000 29.237397 59.930177 -11.225544
